<svg height="512pt" viewBox="0 -117 512.00018 512" width="512pt" xmlns="http://www.w3.org/2000/svg"><path d="m386.65625 84.476562c24.375 6.589844 53.40625 10.222657 87.789062 8.703126 16.417969-.726563 31.203126 10.054687 35.175782 26 13.472656 54.019531-31.917969 158.621093-95.207032 158.621093h-72.578124c-19.835938 0-39.171876-6.351562-55.046876-18.261719-18.777343-14.070312-44.09375-30.84375-59.261718-30.90625-20.457032-.082031-41.242188 11.464844-47.667969 31.671876-3.289063 10.324218-12.664063 17.496093-23.507813 17.496093h-73.550781c-18.914062 0-36.546875-9.675781-46.621093-25.679687-42.351563-67.273438-37.816407-136.648438-33.515626-164.945313 1.078126-7.074219 7.894532-11.792969 14.910157-10.335937 125.617187 26.1875 205.636719-46.824219 227.363281-70.023438 3.15625-3.363281 7.265625-5.75 11.808594-6.515625 8.285156-1.417969 16.386718 2.296875 20.804687 9.15625 3.351563 5.214844 8.390625 12.175781 15.4375 19.882813l20.0625 60.171875zm0 0" fill="#fdddb6"/><path d="m77.386719 252.121094c-42.347657-67.273438-37.816407-136.648438-33.511719-164.945313.339844-2.253906 1.269531-4.265625 2.601562-5.917969-9.347656-.902343-18.980468-2.347656-28.902343-4.417968-7.011719-1.460938-13.832031 3.261718-14.910157 10.335937-4.300781 28.296875-8.835937 97.671875 33.511719 164.945313 10.078125 16.003906 27.710938 25.679687 46.621094 25.679687h41.207031c-18.910156 0-36.542968-9.675781-46.617187-25.679687zm0 0" fill="#f2cda0"/><path d="m386.65625 84.476562-63.457031 69.03125c-9.683594 10.542969-26.082031 11.234376-36.625 1.542969l-40.074219-36.835937c-10.542969-9.695313-11.226562-26.082032-1.542969-36.625l48.03125-52.25c6.070313 6.652344 13.636719 13.851562 22.917969 20.941406l-44.625 48.542969 32.527344 29.914062 51.007812-55.488281h.011719c9.589844 4.261719 20.175781 8.082031 31.828125 11.226562zm0 0" fill="#fc5659"/><path d="m354.820312 73.25-51.011718 55.488281-32.527344-29.910156 44.625-48.546875c10.636719 8.132812 23.496094 16.109375 38.914062 22.96875zm0 0" fill="#ffd54f"/></svg>